<?xml version="1.0" encoding="UTF-8"?>
<!-- Generator: Adobe Illustrator 26.0.1, SVG Export Plug-In . SVG Version: 6.00 Build 0)  -->
<svg xmlns="http://www.w3.org/2000/svg" xmlns:xlink="http://www.w3.org/1999/xlink" version="1.1" id="Layer_1" x="0px" y="0px" viewBox="0 0 129.9 108.5" style="enable-background:new 0 0 129.9 108.5;" xml:space="preserve">
<style type="text/css">
	.st0{fill:#18181A;}
</style>
<g>
	<path class="st0" d="M66.8,2c3.9,0,7.8,0,11.7,0.1C78,22.6,93.3,42,113.2,46.6c3.7,1.2,7.7,1,11.6,1.4c0,3.9,0,7.8,0,11.6   c-7.5,0.4-15.1,1.5-21.7,5.3c-14.8,7.8-24.7,23.9-24.7,40.7c-3.9,0-7.8,0-11.6,0c-0.1-17.9,8.7-35.5,23.2-46.1   c-28.8,0.1-57.7,0-86.5,0c0.1-3.8,0.1-7.7,0-11.6C32.2,48.2,61,48,89.8,48.1c-10.1-8-18.2-18.9-21.2-31.5   C67.4,11.9,66.9,6.9,66.8,2z"></path>
</g>
</svg>
